<svg xmlns="http://www.w3.org/2000/svg" version="1.1" x="0" y="0" viewBox="0 0 100 76" enable-background="new 0 0 100 76" xml:space="preserve"><path fill="#010101" d="M-0.3 62h96.6c0 3.8-1.3 7.1-4 9.7 -2.7 2.7-5.9 4.1-9.8 4.1h-69c-3.8 0-7.1-1.4-9.8-4.1C1.1 69.1-0.3 65.8-0.3 62M93.7 6c4 4 6.1 8.9 6.1 14.6s-2 10.6-6.1 14.6c-4 4-8.9 6.1-14.6 6.1H75.6v1.7c0 3.3-1.2 6.1-3.6 8.5 -2.4 2.4-5.2 3.6-8.5 3.6H25.6c-3.3 0-6.1-1.2-8.5-3.6 -2.4-2.4-3.6-5.2-3.6-8.5V3.4c0-0.9 0.4-1.7 1-2.4 0.7-0.7 1.5-1 2.4-1h62.1C84.7-0.1 89.6 2 93.7 6M86.4 28c2-2 3-4.5 3-7.3 0-2.9-1-5.3-3-7.3 -2-2-4.5-3-7.3-3H75.6v20.7h3.4C81.9 31 84.3 30 86.4 28"/></svg>